# xmcd
#
# Track frame offsets:
#	150
#	9910
#	21350
#	30012
#	38597
#	50350
#	63605
#	74972
#	87485
#	99172
#	110585
#	121790
#	131222
#	142540
#	154307
#	164857
#	174685
#	183510
#	194840
#	205385
#	214445
#	223770
#	234170
#	244915
#	254742
#	265497
#	277810
#	290990
#	305537
#	316820
#	325427
#
# Disc length: 4448 seconds
#
# Revision: 2
# Processed by: cddbd v1.4PL0 Copyright (c) Steve Scherf et al.
# Submitted via: MusicWizard 6.0.2
#
DISCID=e5115e1f
DTITLE=Johnny Horton - Johnny Horton 1956-1960  Vol. 2
DYEAR=1991
DGENRE=Country/Rock
TTITLE0=Counterfeit Love  1958
TTITLE1=Mister Moonlight  1959
TTITLE2=All Grown Up  1958
TTITLE3=Got The Bull By The Horns  1990
TTITLE4=When It's Springtime In Alaska  1959
TTITLE5=Whispering Pines  1959
TTITLE6=The Battle Of New Orleans  1959
TTITLE7=All For The Love Of A Girl  1959
TTITLE8=Lost Highway  1959
TTITLE9=Sam Magee  1959
TTITLE10=Cherokee Boogie  1959
TTITLE11=The Golden Rocket  1959
TTITLE12=The Battle Of New Orleans(British Version)  1959
TTITLE13=Joe's Been A-Gittin There  1959
TTITLE14=The First Train Heading South  1959
TTITLE15=Got The Bull By The Horns  1959
TTITLE16=Sal's Got A Sugerlip  1981
TTITLE17=Words  1960
TTITLE18=Johnny Reb  1959
TTITLE19=Sal's Got A Sugerlip  1959
TTITLE20=Ole Slew Foot  1959
TTITLE21=I'm Ready If Your Willing  1959
TTITLE22=Take Me Like I Am  1959
TTITLE23=They Shined Up Rudolph's Nose  1959
TTITLE24=The Electrified Donkey  1959
TTITLE25=The Same Old Tale The Crow Told Me  1964
TTITLE26=Sink The Bismarck  1991
TTITLE27=Sink The Bismarck  1960
TTITLE28=The Same Old Tale The Crow Told Me  1960
TTITLE29=All Grown Up  1991
TTITLE30=Got The Bull By The Horns  1991
EXTD=
EXTT0=
EXTT1=
EXTT2=
EXTT3=
EXTT4=
EXTT5=
EXTT6=
EXTT7=
EXTT8=
EXTT9=
EXTT10=
EXTT11=
EXTT12=
EXTT13=
EXTT14=
EXTT15=
EXTT16=
EXTT17=
EXTT18=
EXTT19=
EXTT20=
EXTT21=
EXTT22=
EXTT23=
EXTT24=
EXTT25=
EXTT26=
EXTT27=
EXTT28=
EXTT29=
EXTT30=
PLAYORDER=
